<svg width="100" height="25" viewBox="0 0 100 25" fill="none" xmlns="http://www.w3.org/2000/svg">
    <path
        d="M10.7479 11.9569L4.65003 8.58813V16.4169L6.94267 17.6743V12.3887L9.29238 13.7124L9.23055 18.9601L10.7479 19.781L12.2604 18.9601L12.1986 13.7124L14.5483 12.3887V17.6743L16.841 16.4169V8.58813L10.7431 11.9569H10.7479Z"
        fill="#C3C3C3" />
    <path
        d="M10.7497 0L0 5.94041V19.0548L10.7497 25L21.4994 19.0548V5.94041L10.7497 0ZM19.1735 17.7358L10.7497 22.3951L2.32594 17.7358V7.26419L10.7497 2.6096L19.1735 7.26419V17.7358Z"
        fill="#C3C3C3" />
    <path d="M10.7491 9.31466L14.4544 7.26494L10.7491 5.21521L7.04379 7.26494L10.7491 9.31466Z" fill="#C3C3C3" />
    <path
        d="M35.8589 8.49146C34.8553 8.49146 34.0467 8.84731 33.4616 9.54479C33.0383 8.84257 32.3058 8.49146 31.2831 8.49146C30.3984 8.49146 29.6707 8.74767 29.1142 9.2601L29.0761 8.62905H27.1783V16.3677H29.1808V10.8401C29.4566 10.3419 29.9133 10.0999 30.5649 10.0999C31.4163 10.0999 31.8397 10.4985 31.8634 11.3146V16.3725H33.8659V11.1248C33.9563 10.8211 34.118 10.5744 34.3511 10.3846C34.5842 10.1996 34.8886 10.1047 35.2596 10.1047C35.7257 10.1047 36.0634 10.2043 36.2585 10.4036C36.4535 10.6029 36.5534 10.9302 36.5534 11.3763V16.3772H38.5559V11.3288C38.5463 10.4131 38.318 9.70611 37.8757 9.22689C37.4286 8.74293 36.7484 8.50094 35.8494 8.50094L35.8589 8.49146Z"
        fill="#C3C3C3" />
    <path
        d="M48.0445 8.49146C47.1693 8.49146 46.4321 8.77614 45.8565 9.33602L45.8137 8.6338H43.9159V16.3725H45.9184V10.9445C46.2466 10.3799 46.7317 10.1047 47.3929 10.1047C47.8447 10.1047 48.1729 10.209 48.3632 10.4083C48.5582 10.6171 48.6581 10.9445 48.6581 11.3905V16.3725H50.6606V11.2956C50.6321 9.4404 49.7473 8.4962 48.0398 8.4962L48.0445 8.49146Z"
        fill="#C3C3C3" />
    <path
        d="M57.0216 9.16214C56.5174 8.71613 55.8752 8.49313 55.1189 8.49313C54.1391 8.49313 53.3448 8.86322 52.7645 9.58916C52.1889 10.3056 51.894 11.2688 51.894 12.4455C51.894 13.6839 52.1889 14.6755 52.774 15.4015C53.3638 16.1369 54.1486 16.507 55.1047 16.507C55.9228 16.507 56.603 16.2508 57.131 15.7431L57.2023 16.3694H59.0288V5.48022H57.0263V9.16214H57.0216ZM57.0216 10.9177V14.0682C56.7076 14.6328 56.2272 14.908 55.5565 14.908C55.0286 14.908 54.629 14.7135 54.3436 14.3149C54.0487 13.9069 53.9013 13.328 53.9013 12.5926C53.9013 11.748 54.0487 11.1122 54.3436 10.7042C54.6338 10.3009 55.0333 10.1063 55.5708 10.1063C56.2415 10.1063 56.7171 10.372 57.0216 10.9224V10.9177Z"
        fill="#C3C3C3" />
    <path
        d="M64.5747 8.49313C63.7947 8.49313 63.143 8.72562 62.6341 9.18112V5.48022H60.6316V16.3694H62.4581L62.5294 15.7194C63.0479 16.2413 63.7423 16.507 64.589 16.507C65.5783 16.507 66.3679 16.1416 66.934 15.4252C67.4905 14.7182 67.7759 13.7598 67.7759 12.5736V12.4787C67.7759 11.2356 67.4905 10.2534 66.9292 9.55595C66.3584 8.84899 65.5688 8.49313 64.5747 8.49313ZM65.7734 12.4313V12.6448C65.7639 13.4134 65.6164 13.9923 65.331 14.3624C65.0504 14.7277 64.6651 14.908 64.1466 14.908C63.4284 14.908 62.9337 14.6186 62.6388 14.016V10.9699C62.9337 10.3863 63.4189 10.1016 64.1324 10.1016C64.6699 10.1016 65.0647 10.2866 65.3453 10.6662C65.6307 11.0505 65.7734 11.6484 65.7734 12.4313Z"
        fill="#C3C3C3" />
    <path
        d="M72.6373 8.49146C71.9524 8.49146 71.3911 8.74767 70.963 9.25061L70.9298 8.62905H69.0129V16.3677H71.0154V11.1438C71.2817 10.6076 71.7764 10.3419 72.5327 10.3419C72.7705 10.3419 73.0083 10.3609 73.2319 10.3941L73.3698 10.4178L73.3794 8.62431L73.3033 8.59584C73.1225 8.52467 72.8989 8.49146 72.6326 8.49146H72.6373Z"
        fill="#C3C3C3" />
    <path
        d="M82.8482 13.7629C82.8292 14.095 82.6912 14.3654 82.4249 14.5932C82.1585 14.8162 81.816 14.9348 81.407 14.9348C80.86 14.9348 80.4557 14.7545 80.1703 14.3797C79.8801 14.0001 79.7327 13.4117 79.7327 12.6241V12.3537C79.7374 11.5755 79.8896 10.9919 80.1798 10.6218C80.4699 10.2518 80.8695 10.0715 81.407 10.0715C81.8255 10.0715 82.1585 10.1948 82.4249 10.4558C82.696 10.7167 82.8339 11.0394 82.8529 11.4427V11.5518H84.7603V11.4332C84.727 10.5602 84.4036 9.8437 83.79 9.3028C83.1811 8.76665 82.382 8.49146 81.4212 8.49146C80.2844 8.49146 79.3759 8.85205 78.7148 9.55902C78.0584 10.266 77.7254 11.2149 77.7254 12.3821V12.5577C77.7254 13.7818 78.0631 14.7545 78.7243 15.452C79.3902 16.1542 80.2987 16.5101 81.4307 16.5101C82.0158 16.5101 82.5628 16.3867 83.067 16.1447C83.5712 15.9027 83.9802 15.5659 84.2751 15.1436C84.57 14.7213 84.7318 14.2611 84.7555 13.7771V13.6585H82.8577V13.7676L82.8482 13.7629Z"
        fill="#C3C3C3" />
    <path
        d="M99.7003 13.0385C99.4958 12.7396 99.1866 12.4834 98.7776 12.2746C98.3733 12.0706 97.8168 11.8903 97.1128 11.7432C96.4374 11.6009 95.9855 11.4585 95.7715 11.3257C95.5764 11.2023 95.4813 11.0362 95.4813 10.818C95.4813 10.5665 95.586 10.372 95.8 10.2201C96.0236 10.0636 96.3185 9.98765 96.6799 9.98765C97.0652 9.98765 97.3744 10.0873 97.6027 10.2818C97.831 10.4764 97.9404 10.7136 97.9404 11.0078V11.1216H99.9429V11.0078C99.9429 10.2676 99.6337 9.65552 99.0297 9.19053C98.4303 8.7303 97.6408 8.4978 96.6752 8.4978C95.7715 8.4978 95.0104 8.72555 94.4206 9.1763C93.8213 9.63179 93.5169 10.2107 93.5169 10.8891C93.5169 11.7052 93.983 12.3363 94.9058 12.7633C95.3148 12.9531 95.8333 13.1097 96.4374 13.2283C97.0224 13.3469 97.441 13.4798 97.6883 13.6316C97.9119 13.7692 98.0213 13.959 98.0213 14.2247C98.0213 14.4619 97.9166 14.647 97.7074 14.7941C97.4886 14.9459 97.1508 15.0266 96.718 15.0266C96.2852 15.0266 95.9046 14.9269 95.6335 14.7276C95.3672 14.5331 95.2292 14.2579 95.2054 13.8926V13.7834H93.2505V13.8973C93.2505 14.367 93.398 14.813 93.6929 15.2163C93.983 15.6196 94.3968 15.9423 94.92 16.17C95.4385 16.3978 96.0331 16.5117 96.6942 16.5117C97.6645 16.5117 98.4636 16.2934 99.0725 15.8616C99.6861 15.4204 100 14.8415 100 14.1298C100 13.7075 99.8954 13.3422 99.6956 13.0385H99.7003Z"
        fill="#C3C3C3" />
    <path
        d="M92.8536 8.62866H90.4135L88.2017 11.0105L87.8592 11.4186V8.62866H85.8567V16.3673H87.8592V13.8526L88.5109 13.2121L90.7987 16.3673H93.1342L89.8189 11.8835L92.8536 8.62866Z"
        fill="#C3C3C3" />
    <path d="M42.2637 10.5455V8.62866H40.2565V16.3673H42.2637V11.8978L41.2601 10.5455H42.2637Z" fill="#C3C3C3" />
    <path d="M76.3702 10.5455V8.62866H74.3629V16.3673H76.3702V11.8978L75.3665 10.5455H76.3702Z" fill="#C3C3C3" />
</svg>